<svg xmlns="http://www.w3.org/2000/svg" width="55.144" height="55.784" viewBox="0 0 55.144 55.784"><defs><style>.a{fill:#3047fe;}</style></defs><path class="a" d="M54.322,36.818a.825.825,0,0,0,.822-.829V16a4.249,4.249,0,0,0-1.233-3.006,4.178,4.178,0,0,0-2.979-1.241H41.582V.829A.825.825,0,0,0,40.761,0H20.694a.825.825,0,0,0-.821.828V12.576a.821.821,0,1,0,1.643,0V1.657H39.94V11.75H30.864a4.177,4.177,0,0,0-2.979,1.243,4.289,4.289,0,0,0-.964,1.516,3.918,3.918,0,0,0-.569-.042H8.38a.828.828,0,0,0,0,1.656H26.353a2.317,2.317,0,0,1,2.3,2.324V51.8a2.317,2.317,0,0,1-2.3,2.324H3.948a2.317,2.317,0,0,1-2.3-2.324V18.448a2.317,2.317,0,0,1,2.3-2.324H5.641a.828.828,0,0,0,0-1.656H3.948A3.968,3.968,0,0,0,0,18.448V51.8a3.968,3.968,0,0,0,3.948,3.98H26.353A3.969,3.969,0,0,0,30.3,51.8V20.244h3.134V51.562a.825.825,0,0,0,.821.828H54.322a.825.825,0,0,0,.821-.828V38.751a.822.822,0,1,0-1.643,0V50.733H35.078V16a4.244,4.244,0,0,0-.872-2.59H50.932a2.549,2.549,0,0,1,1.817.756A2.591,2.591,0,0,1,53.5,16V35.989a.825.825,0,0,0,.821.829ZM32.683,14.163A2.589,2.589,0,0,1,33.435,16v2.59H30.3v-.139a3.988,3.988,0,0,0-1.84-3.363,2.576,2.576,0,0,1,.586-.921,2.549,2.549,0,0,1,1.819-.758h0a2.547,2.547,0,0,1,1.814.756Zm0,0" transform="translate(0 0)"/><path class="a" d="M54.138,164.028a.825.825,0,0,0-.821-.828H31.231a.825.825,0,0,0-.821.828v8.193a.825.825,0,0,0,.821.829H53.317a.825.825,0,0,0,.821-.829ZM52.5,171.393H32.053v-6.537H52.5Zm0,0" transform="translate(-27.124 -145.418)"/><path class="a" d="M53.317,270.449H31.232a.825.825,0,0,0-.821.828v21.437a.825.825,0,0,0,.821.829H53.317a.825.825,0,0,0,.821-.829V271.277A.825.825,0,0,0,53.317,270.449Zm-.821,7.326H46.931v-5.67H52.5Zm0,6.785H46.931v-5.128H52.5Zm-20.442-5.128h5.565v5.128H32.054Zm7.208,0h6.027v5.128H39.261Zm6.027-7.326v5.67H39.261v-5.67Zm-7.669,0v5.67H32.054v-5.67Zm-5.565,14.112h5.565v5.669H32.054Zm7.208,5.669v-5.669h6.027v5.669Zm7.67,0v-5.669H52.5v5.669Zm0,0" transform="translate(-27.124 -240.983)"/><path class="a" d="M342.091,146.336H339.9a.828.828,0,0,0,0,1.656h2.191a.828.828,0,0,0,0-1.656Zm0,0" transform="translate(-302.437 -130.392)"/><path class="a" d="M395.183,146.336h-8.653a.828.828,0,0,0,0,1.656h8.653a.828.828,0,0,0,0-1.656Zm0,0" transform="translate(-344.027 -130.392)"/><path class="a" d="M342.091,317.645H339.9a.828.828,0,0,0,0,1.657h2.191a.828.828,0,0,0,0-1.657Zm0,0" transform="translate(-302.437 -283.037)"/><path class="a" d="M396,318.473a.825.825,0,0,0-.821-.829h-8.653a.828.828,0,0,0,0,1.657h8.653A.825.825,0,0,0,396,318.473Zm0,0" transform="translate(-344.027 -283.036)"/><path class="a" d="M342.091,274.82H339.9a.828.828,0,0,0,0,1.656h2.191a.828.828,0,0,0,0-1.656Zm0,0" transform="translate(-302.437 -244.878)"/><path class="a" d="M395.183,274.82h-8.653a.828.828,0,0,0,0,1.656h8.653a.828.828,0,0,0,0-1.656Zm0,0" transform="translate(-344.027 -244.878)"/><path class="a" d="M342.091,231.992H339.9a.828.828,0,0,0,0,1.656h2.191a.828.828,0,0,0,0-1.656Zm0,0" transform="translate(-302.437 -206.716)"/><path class="a" d="M395.183,231.992h-8.653a.828.828,0,0,0,0,1.656h8.653a.828.828,0,0,0,0-1.656Zm0,0" transform="translate(-344.027 -206.716)"/><path class="a" d="M342.091,189.164H339.9a.828.828,0,0,0,0,1.656h2.191a.828.828,0,0,0,0-1.656Zm0,0" transform="translate(-302.437 -168.554)"/><path class="a" d="M395.183,189.164h-8.653a.828.828,0,0,0,0,1.656h8.653a.828.828,0,0,0,0-1.656Zm0,0" transform="translate(-344.027 -168.554)"/><path class="a" d="M214.2,37.106h2.191a.828.828,0,0,0,0-1.657H214.2a.828.828,0,0,0,0,1.657Zm0,0" transform="translate(-190.324 -31.587)"/><path class="a" d="M260.833,37.106h8.654a.828.828,0,0,0,0-1.657h-8.654a.828.828,0,0,0,0,1.657Zm0,0" transform="translate(-231.914 -31.587)"/><path class="a" d="M214.2,79.934h2.191a.828.828,0,0,0,0-1.657H214.2a.828.828,0,0,0,0,1.657Zm0,0" transform="translate(-190.324 -69.749)"/><path class="a" d="M260.833,79.934h8.654a.828.828,0,0,0,0-1.657h-8.654a.828.828,0,0,0,0,1.657Zm0,0" transform="translate(-231.914 -69.749)"/><path class="a" d="M389.118,367.061a.474.474,0,0,0,.326.123h.02a.567.567,0,0,0,.564-.569v-.121a2.369,2.369,0,0,0,2.017-2.456c0-1.456-.967-2.037-2.017-2.446v-2.04a2.334,2.334,0,0,1,.748.263.953.953,0,0,0,.422.144c.446,0,.639-.55.639-.83,0-.6-.93-.876-1.809-.937v-.123a.564.564,0,1,0-1.128,0v.16a2.244,2.244,0,0,0-2.114,2.273c0,1.5,1.216,1.97,2.114,2.31v2.29a2.409,2.409,0,0,1-1.077-.55,1.015,1.015,0,0,0-.571-.3c-.384,0-.673.511-.673.842,0,.625.952,1.375,2.322,1.461v.057A.563.563,0,0,0,389.118,367.061Zm-.218-7.441v1.54c-.343-.159-.652-.372-.652-.809C388.248,360,388.473,359.747,388.9,359.619Zm1.128,5.407v-1.731a.975.975,0,0,1,.554.894A.859.859,0,0,1,390.028,365.026Zm0,0" transform="translate(-344.804 -318.549)"/><path class="a" d="M195.454,215.907h1.753a.828.828,0,0,0,0-1.657h-1.753a.828.828,0,0,0,0,1.657Zm0,0" transform="translate(-173.6 -190.907)"/></svg>