<svg xmlns="http://www.w3.org/2000/svg" width="53.784" height="53.784" viewBox="0 0 53.784 53.784"><defs><style>.a{fill:#ffa700;}</style></defs><g transform="translate(-1 -1)"><path class="a" d="M50.447,1H42.639A4.342,4.342,0,0,0,38.3,5.337v6.581l-3.695,3.695a10.387,10.387,0,0,0-3.052-1.79,6.94,6.94,0,1,0-7.327,0,10.418,10.418,0,0,0-6.746,9.731v6.072a4.342,4.342,0,0,0,4.337,4.337v3.111l-5.564,5.564H5.337A4.342,4.342,0,0,0,1,46.977v3.47a4.342,4.342,0,0,0,4.337,4.337h7.807a4.342,4.342,0,0,0,4.337-4.337V43.866l4.337-4.337V51.314a3.456,3.456,0,0,0,6.072,2.271,3.456,3.456,0,0,0,6.072-2.271V33.965A4.342,4.342,0,0,0,38.3,29.627V23.555a10.361,10.361,0,0,0-2.468-6.715l3.695-3.695H50.447a4.342,4.342,0,0,0,4.337-4.337V5.337A4.342,4.342,0,0,0,50.447,1Zm-34.7,49.447a2.606,2.606,0,0,1-2.6,2.6H5.337a2.606,2.606,0,0,1-2.6-2.6v-3.47a2.606,2.606,0,0,1,2.6-2.6h10.41ZM22.687,7.94a5.2,5.2,0,1,1,5.2,5.2A5.21,5.21,0,0,1,22.687,7.94Zm13.88,21.687a2.606,2.606,0,0,1-2.6,2.6V20.952H32.23V51.314a1.735,1.735,0,1,1-3.47,0V30.495H27.025v20.82a1.735,1.735,0,1,1-3.47,0V20.952H21.82V32.23a2.606,2.606,0,0,1-2.6-2.6V23.555a8.675,8.675,0,0,1,17.35,0ZM53.049,8.807a2.606,2.606,0,0,1-2.6,2.6H40.037V5.337a2.606,2.606,0,0,1,2.6-2.6h7.807a2.606,2.606,0,0,1,2.6,2.6Z"/><path class="a" d="M48,5h9.542V6.735H48Z" transform="translate(-6.228 -0.53)"/><path class="a" d="M57,9h1.735v1.735H57Z" transform="translate(-7.421 -1.06)"/><path class="a" d="M48,9h6.072v1.735H48Z" transform="translate(-6.228 -1.06)"/><path class="a" d="M5,57h9.542v1.735H5Z" transform="translate(-0.53 -7.421)"/><path class="a" d="M5,53H6.735v1.735H5Z" transform="translate(-0.53 -6.891)"/><path class="a" d="M9,53h6.072v1.735H9Z" transform="translate(-1.06 -6.891)"/><path class="a" d="M58.35,38H56.615V52.747H54.88V39.735H53.145V52.747H51.41V44.94H49.675v7.807H47.94V42.337H46.2v10.41H44.47V44.072H42.735v8.675H41v1.735H60.085V52.747H58.35Z" transform="translate(-5.301 -4.903)"/><path class="a" d="M61,59h1.735v1.735H61Z" transform="translate(-7.951 -7.686)"/><path class="a" d="M41,59H56.615v1.735H41Z" transform="translate(-5.301 -7.686)"/><path class="a" d="M10.542,20.085A9.542,9.542,0,1,0,1,10.542,9.554,9.554,0,0,0,10.542,20.085Zm7.807-9.542A7.755,7.755,0,0,1,17.262,14.5L14.451,12.39a4.293,4.293,0,0,0,.429-1.848,4.346,4.346,0,0,0-3.47-4.25V2.786A7.817,7.817,0,0,1,18.35,10.542Zm-7.807-2.6a2.6,2.6,0,1,1-2.6,2.6A2.606,2.606,0,0,1,10.542,7.94ZM9.675,2.786V6.293a4.335,4.335,0,1,0,3.731,7.482l2.814,2.111a7.8,7.8,0,1,1-6.545-13.1Z" transform="translate(0 0)"/></g></svg>