<svg xmlns="http://www.w3.org/2000/svg" width="53.785" height="53.784" viewBox="0 0 53.785 53.784"><defs><style>.a{fill:#009bff;}</style></defs><g transform="translate(-1 -1)"><path class="a" d="M51.254,16.735H42.7l-1.735,24.29h-1.8v-6.94H37.1L35.634,15H27.088L26.4,23.972l-.2.1a15.46,15.46,0,0,0-3.97-1.632l-.77-1.367H15.241l-.772,1.367a15.509,15.509,0,0,0-3.97,1.632L8.364,23,3.8,27.569,4.866,29.7A15.529,15.529,0,0,0,3.26,33.572L1,34.327v6.455l2.261.754A15.456,15.456,0,0,0,4.867,45.4L3.8,47.539l4.566,4.566L10.5,51.037c.713.422,1.978,1.149,2.644,1.531v4.071H54.785V41.025H52.99ZM49.639,18.47l.248,3.47H44.066l.248-3.47Zm-5.7,5.2h6.069l1.24,17.35H42.7Zm-30.8,10.41V46.566A10.4,10.4,0,1,1,25.9,30.411l-.282,3.674ZM28.295,21.94h6.134l.934,12.145h-8Zm5.734-5.2L34.3,20.2H28.428l.267-3.47ZM11,49.313l-.413-.259-1.879.94-2.8-2.8.94-1.88L6.592,44.9A13.768,13.768,0,0,1,4.834,40.67l-.109-.475-1.99-.663V35.577l1.99-.664.109-.475A13.759,13.759,0,0,1,6.592,30.2l.259-.413-.94-1.879,2.8-2.8,1.88.939L11,25.8a13.746,13.746,0,0,1,4.234-1.758l.374-.086.645-1.146h4.192l.646,1.146.374.086A13.767,13.767,0,0,1,25.7,25.8l.414.259.13-.065-.17,2.215A12.135,12.135,0,1,0,13.145,48.522v2.045C12.3,50.078,11.293,49.5,11,49.313ZM23.555,54.9H14.88V35.82H37.434v5.2h-9.9L23.555,45Zm8.675,0H28.76V49.7h3.47Zm8.675,0h-3.47V49.7H40.9Zm8.675,0h-3.47V49.7h3.47Zm1.735,0v-6.94h-6.94V54.9H42.639v-6.94H35.7V54.9H33.964v-6.94h-6.94V54.9H25.29V46.23h27.76V54.9Zm1.735-10.41H26.516l1.735-1.735h24.8Z" transform="translate(0 -1.855)"/><path class="a" d="M51,8.735h7.807a.867.867,0,0,1,0,1.735H57.072a2.606,2.606,0,0,0-2.6,2.6v.867H56.2v-.867a.868.868,0,0,1,.867-.867h1.735a2.6,2.6,0,1,0,0-5.2H51Z" transform="translate(-6.626 -0.795)"/><path class="a" d="M47.337,11.675h1.735a.868.868,0,0,1,.867.867v.867h1.735v-.867a2.606,2.606,0,0,0-2.6-2.6H47.337a2.6,2.6,0,1,1,0-5.2H53.41V3H47.337a4.337,4.337,0,0,0,0,8.675Z" transform="translate(-5.566 -0.265)"/><path class="a" d="M57,3h1.735V4.735H57Z" transform="translate(-7.421 -0.265)"/><path class="a" d="M8.6,6.2h6.072a.868.868,0,0,1,.867.867,2.606,2.606,0,0,0,2.6,2.6h10.41a.868.868,0,0,1,.867.867v.867h1.735v-.867a2.606,2.606,0,0,0-2.6-2.6H18.145a.868.868,0,0,1-.867-.867,2.606,2.606,0,0,0-2.6-2.6H8.6a.867.867,0,0,1,0-1.735h9.542V1H8.6a2.6,2.6,0,1,0,0,5.2Z" transform="translate(-0.663 0)"/><path class="a" d="M28.6,6.2h2.6a4.342,4.342,0,0,1,4.337,4.337v.867h1.735v-.867A6.08,6.08,0,0,0,31.2,4.47H28.6a.867.867,0,1,1,0-1.735h9.542V1H28.6a2.6,2.6,0,1,0,0,5.2Z" transform="translate(-3.313 0)"/><path class="a" d="M35,41h1.735v1.735H35Z" transform="translate(-4.505 -5.301)"/><path class="a" d="M39,41h1.735v1.735H39Z" transform="translate(-5.035 -5.301)"/><path class="a" d="M31,41h1.735v1.735H31Z" transform="translate(-3.975 -5.301)"/><path class="a" d="M27,41h1.735v1.735H27Z" transform="translate(-3.445 -5.301)"/><path class="a" d="M19,41h1.735v1.735H19Z" transform="translate(-2.385 -5.301)"/><path class="a" d="M23,41h1.735v1.735H23Z" transform="translate(-2.915 -5.301)"/><path class="a" d="M23,45h1.735v1.735H23Z" transform="translate(-2.915 -5.831)"/><path class="a" d="M19,45h1.735v1.735H19Z" transform="translate(-2.385 -5.831)"/><path class="a" d="M23,49h1.735v1.735H23Z" transform="translate(-2.915 -6.361)"/><path class="a" d="M19,49h1.735v1.735H19Z" transform="translate(-2.385 -6.361)"/><path class="a" d="M19,53h1.735v1.735H19Z" transform="translate(-2.385 -6.891)"/><path class="a" d="M23,53h1.735v1.735H23Z" transform="translate(-2.915 -6.891)"/><path class="a" d="M23,57h1.735v1.735H23Z" transform="translate(-2.915 -7.421)"/><path class="a" d="M19,57h1.735v1.735H19Z" transform="translate(-2.385 -7.421)"/><path class="a" d="M35,25h1.735v1.735H35Z" transform="translate(-4.505 -3.18)"/><path class="a" d="M35,33h1.735v1.735H35Z" transform="translate(-4.505 -4.24)"/><path class="a" d="M35,29h1.735v1.735H35Z" transform="translate(-4.505 -3.71)"/><path class="a" d="M53,27h1.735v1.735H53Z" transform="translate(-6.891 -3.445)"/><path class="a" d="M53,35h1.735v1.735H53Z" transform="translate(-6.891 -4.505)"/><path class="a" d="M53,31h1.735v1.735H53Z" transform="translate(-6.891 -3.975)"/><path class="a" d="M53,39h1.735v1.735H53Z" transform="translate(-6.891 -5.035)"/></g></svg>