<svg xmlns="http://www.w3.org/2000/svg" width="56.575" height="53.784" viewBox="0 0 56.575 53.784"><defs><style>.a{fill:#fe8000;}</style></defs><g transform="translate(0 0)"><path class="a" d="M56.473,125.317a4.741,4.741,0,0,0-2.115-3.049,4.815,4.815,0,0,0-3.676-.636l-5.9,1.339V120.58a23.153,23.153,0,0,0,3.29-3.866,22.569,22.569,0,0,0,3.23-7.546,22.937,22.937,0,0,0,.044-9.814,1.1,1.1,0,0,0-2.161.459,20.736,20.736,0,0,1-.04,8.877,20.4,20.4,0,0,1-2.919,6.818,19.531,19.531,0,0,1-1.444,1.89V105.249a1.1,1.1,0,0,0-1.1-1.1H34.939v-11.7a1.1,1.1,0,0,0-1.1-1.1l-9.846-.033h0a1.107,1.107,0,0,0-.78.32,1.091,1.091,0,0,0-.325.776V98.5H14.141a1.1,1.1,0,0,0-1.1,1.1v10.853H10.574v-1.489a1.1,1.1,0,0,0-1.1-1.1H8.335a20.582,20.582,0,0,1,.9-10.749c.206-.563.44-1.125.695-1.669A1.093,1.093,0,0,0,9.4,94a1.109,1.109,0,0,0-1.468.531c-.283.6-.542,1.224-.769,1.847a22.725,22.725,0,0,0-1.067,11.5H1.1a1.1,1.1,0,0,0-1.1,1.1v19.265a1.1,1.1,0,0,0,1.1,1.1H9.469a1.1,1.1,0,0,0,1.1-1.1v-1.042h4.157l16.838,6.55a13.4,13.4,0,0,0,8.178.507l13.2-3.327a4.767,4.767,0,0,0,3.529-5.6Zm-13.9-18.972v17.128l-2.954.671c-.318.072-.639.129-.962.173a11.308,11.308,0,0,1-3.705-.107l-.016,0v-1.662a5.041,5.041,0,0,0,.68-4.27,4.9,4.9,0,0,0-.52-1.149q-.076-.122-.158-.239l0,0V106.345h7.636ZM25.093,93.516l7.636.025v21.6l-4.268-1.752-3.368-1.383ZM15.246,100.7h7.636v10.4l-1.37-.563a1.111,1.111,0,0,0-.423-.083H15.246ZM8.364,127.135H2.21V110.062H8.364ZM52.4,128.8l-13.2,3.327a11.191,11.191,0,0,1-6.827-.423l-17.032-6.626a1.112,1.112,0,0,0-.4-.075H10.574V112.646H20.869l7.15,2.935,3.912,1.606a2.734,2.734,0,0,1,1.479,3.551,3.127,3.127,0,0,1-.442.77,2.861,2.861,0,0,1-2.9.991l-.026-.006c-.064-.016-.127-.034-.19-.055L22.42,119.6l-.092-.035a1.108,1.108,0,0,0-1.428.63,1.093,1.093,0,0,0,.635,1.416s4.192,1.6,7.389,2.821c.064.025.128.048.193.069l2.455.936a20.409,20.409,0,0,0,2.253.76,13.512,13.512,0,0,0,6.292.078l3.812-.865.012,0,7.237-1.643a2.6,2.6,0,0,1,1.989.344A2.578,2.578,0,0,1,52.4,128.8Zm0,0" transform="translate(0 -80.874)"/><path class="a" d="M119.021,8.136a1.139,1.139,0,0,0,.766-.295,21.495,21.495,0,0,1,15.882-5.507,21.454,21.454,0,0,1,6.236,1.358,1.144,1.144,0,0,0,.814-2.138,23.737,23.737,0,0,0-6.9-1.5,23.784,23.784,0,0,0-17.566,6.092,1.144,1.144,0,0,0,.767,1.993Zm0,0" transform="translate(-105.207)"/><path class="a" d="M351.839,43.08a1.145,1.145,0,0,0,1.614-.113l9.411-10.833a1.144,1.144,0,0,0-1.727-1.5l-9.411,10.833A1.143,1.143,0,0,0,351.839,43.08Zm0,0" transform="translate(-313.236 -26.781)"/><path class="a" d="M406.383,99.738a2.872,2.872,0,1,0,2.872,2.872A2.875,2.875,0,0,0,406.383,99.738Zm0,3.456a.584.584,0,1,1,.584-.584A.585.585,0,0,1,406.383,103.194Zm0,0" transform="translate(-359.346 -88.762)"/><path class="a" d="M350.852,33.009a2.872,2.872,0,1,0-2.872-2.872A2.875,2.875,0,0,0,350.852,33.009Zm0-3.456a.584.584,0,1,1-.584.584A.585.585,0,0,1,350.852,29.553Zm0,0" transform="translate(-309.677 -24.147)"/><path class="a" d="M91.666,82.4a1.143,1.143,0,1,0,.421-1.389A1.153,1.153,0,0,0,91.666,82.4Zm0,0" transform="translate(-81.476 -71.908)"/></g></svg>