<svg xmlns="http://www.w3.org/2000/svg" width="65.899" height="58" viewBox="0 0 65.899 58"><defs><style>.a{fill:#39273d;}</style></defs><g transform="translate(0 -68.409)"><g transform="translate(0 68.409)"><path class="a" d="M61.565,68.409H4.334C1.944,68.409,0,70.744,0,73.614V121.2c0,2.87,1.944,5.205,4.334,5.205H61.565c2.39,0,4.334-2.335,4.334-5.205V73.614C65.9,70.744,63.955,68.409,61.565,68.409ZM15.408,123.93H4.334a2.533,2.533,0,0,1-2.27-2.727V73.614a2.533,2.533,0,0,1,2.27-2.727H15.408V123.93ZM63.835,121.2a2.533,2.533,0,0,1-2.27,2.727H17.472V70.888H61.565a2.533,2.533,0,0,1,2.27,2.727Z" transform="translate(0 -68.409)"/></g><g transform="translate(19.811 73.697)"><path class="a" d="M159.354,102.614h-4.4a1.26,1.26,0,0,0,0,2.479h4.4a1.26,1.26,0,0,0,0-2.479Z" transform="translate(-153.92 -102.614)"/></g><g transform="translate(4.402 73.697)"><path class="a" d="M41.84,102.614h-6.6a1.26,1.26,0,0,0,0,2.479h6.6a1.26,1.26,0,0,0,0-2.479Z" transform="translate(-34.204 -102.614)"/></g><g transform="translate(4.402 86.916)"><path class="a" d="M41.84,188.125h-6.6a1.26,1.26,0,0,0,0,2.479h6.6a1.26,1.26,0,0,0,0-2.479Z" transform="translate(-34.204 -188.125)"/></g><g transform="translate(4.402 97.491)"><path class="a" d="M41.84,256.534h-6.6a1.26,1.26,0,0,0,0,2.479h6.6a1.26,1.26,0,0,0,0-2.479Z" transform="translate(-34.204 -256.534)"/></g><g transform="translate(4.402 108.067)"><path class="a" d="M41.84,324.944h-6.6a1.26,1.26,0,0,0,0,2.479h6.6a1.26,1.26,0,0,0,0-2.479Z" transform="translate(-34.204 -324.944)"/></g><g transform="translate(4.402 92.204)"><path class="a" d="M41.84,222.33h-6.6a1.26,1.26,0,0,0,0,2.479h6.6a1.26,1.26,0,0,0,0-2.479Z" transform="translate(-34.204 -222.33)"/></g><g transform="translate(4.402 102.779)"><path class="a" d="M41.84,290.739h-6.6a1.26,1.26,0,0,0,0,2.479h6.6a1.26,1.26,0,0,0,0-2.479Z" transform="translate(-34.204 -290.739)"/></g><g transform="translate(4.402 115.998)"><path class="a" d="M39.638,376.251h-4.4a1.26,1.26,0,0,0,0,2.479h4.4a1.26,1.26,0,0,0,0-2.479Z" transform="translate(-34.204 -376.251)"/></g><g transform="translate(4.402 78.984)"><path class="a" d="M39.638,136.818h-4.4a1.26,1.26,0,0,0,0,2.479h4.4a1.26,1.26,0,0,0,0-2.479Z" transform="translate(-34.204 -136.818)"/></g><g transform="translate(28.616 73.697)"><path class="a" d="M227.763,102.614h-4.4a1.26,1.26,0,0,0,0,2.479h4.4a1.26,1.26,0,0,0,0-2.479Z" transform="translate(-222.329 -102.614)"/></g><g transform="translate(37.42 73.697)"><path class="a" d="M296.172,102.614h-4.4a1.26,1.26,0,0,0,0,2.479h4.4a1.26,1.26,0,0,0,0-2.479Z" transform="translate(-290.738 -102.614)"/></g><g transform="translate(46.225 73.697)"><path class="a" d="M364.582,102.614h-4.4a1.26,1.26,0,0,0,0,2.479h4.4a1.26,1.26,0,0,0,0-2.479Z" transform="translate(-359.148 -102.614)"/></g><g transform="translate(55.03 73.697)"><path class="a" d="M432.991,102.614h-4.4a1.26,1.26,0,0,0,0,2.479h4.4a1.26,1.26,0,0,0,0-2.479Z" transform="translate(-427.557 -102.614)"/></g><g transform="translate(20.911 90.882)"><path class="a" d="M174.028,224.6a.923.923,0,0,0-1.445.247A4.24,4.24,0,0,1,169.006,227c-2.465,0-4.471-2.409-4.471-5.37s2.006-5.37,4.471-5.37a4.241,4.241,0,0,1,3.579,2.151.923.923,0,0,0,1.444.248,1.41,1.41,0,0,0,.206-1.735,6.2,6.2,0,0,0-5.23-3.143c-3.6,0-6.535,3.521-6.535,7.849s2.932,7.849,6.535,7.849a6.2,6.2,0,0,0,5.228-3.139A1.41,1.41,0,0,0,174.028,224.6Z" transform="translate(-162.471 -213.78)"/></g><g transform="translate(35.219 90.882)"><path class="a" d="M281.065,224.077a5.079,5.079,0,0,0,3.44-5.094c0-2.87-1.944-5.205-4.334-5.205h-5.5a1.15,1.15,0,0,0-1.032,1.239v13.219a1.049,1.049,0,1,0,2.064,0v-4.048h2.855l2.992,4.792a.983.983,0,0,0,.826.5.921.921,0,0,0,.618-.248,1.41,1.41,0,0,0,.206-1.735ZM275.7,221.71v-5.453h4.471a2.772,2.772,0,0,1,0,5.453H275.7Z" transform="translate(-273.637 -213.778)"/></g><g transform="translate(47.326 90.882)"><path class="a" d="M380.763,228.113l-1.1-13.219a1.163,1.163,0,0,0-.882-1.1,1.022,1.022,0,0,0-1.1.767L374.234,224.9l-3.445-10.343a1.023,1.023,0,0,0-1.1-.767,1.163,1.163,0,0,0-.882,1.1l-1.1,13.219a1.2,1.2,0,0,0,.924,1.357,1.1,1.1,0,0,0,1.129-1.11l.681-8.182,2.837,8.519a.979.979,0,0,0,1.916,0l2.837-8.519.681,8.182a1.125,1.125,0,0,0,1.026,1.116.848.848,0,0,0,.1-.006A1.2,1.2,0,0,0,380.763,228.113Z" transform="translate(-367.699 -213.778)"/></g></g></svg>