<svg xmlns="http://www.w3.org/2000/svg" width="56.545" height="58" viewBox="0 0 56.545 58"><defs><style>.a{fill:#5a53f9;}</style></defs><g transform="translate(-0.499 0)"><path class="a" d="M38.729,14.418a3.632,3.632,0,0,0-4.6,0,2.529,2.529,0,0,0,0,3.955l5.536,4.764a3.632,3.632,0,0,0,4.6,0L56.092,12.958a2.53,2.53,0,0,0,0-3.955,3.632,3.632,0,0,0-4.6,0l-1.3,1.122a13.258,13.258,0,0,0-3.15-1.512V7.341a3.052,3.052,0,0,0-3.249-2.8H33.6V3.574A3.9,3.9,0,0,0,29.452,0H18.089a3.9,3.9,0,0,0-4.152,3.574V7.612A2.167,2.167,0,0,0,16.244,9.6H31.3A2.167,2.167,0,0,0,33.6,7.612V6.247H43.793a1.2,1.2,0,0,1,1.272,1.095v.784a14.527,14.527,0,0,0-2.49-.217c-6.925,0-12.56,4.849-12.56,10.809s5.634,10.809,12.56,10.809a14.624,14.624,0,0,0,2.49-.213V55.2A1.2,1.2,0,0,1,43.793,56.3H3.748A1.194,1.194,0,0,1,2.476,55.2V7.341A1.194,1.194,0,0,1,3.748,6.247h6.573a.928.928,0,0,0,.989-.851.928.928,0,0,0-.989-.851H3.748A3.052,3.052,0,0,0,.5,7.341V55.2A3.052,3.052,0,0,0,3.748,58H43.793a3.052,3.052,0,0,0,3.249-2.8V28.821a12.948,12.948,0,0,0,4.269-2.337,10.137,10.137,0,0,0,3.817-7.389.917.917,0,0,0-.954-.88.942.942,0,0,0-1.022.821c-.158,3.952-3.178,7.215-7.324,8.354a1.051,1.051,0,0,0-.165.046,12.312,12.312,0,0,1-3.087.388c-5.835,0-10.582-4.086-10.582-9.107S36.74,9.61,42.575,9.61a11.757,11.757,0,0,1,6.2,1.731L41.967,17.2Zm-7.1-6.806a.309.309,0,0,1-.33.284H16.244a.309.309,0,0,1-.33-.284V3.574A2.043,2.043,0,0,1,18.089,1.7H29.452a2.043,2.043,0,0,1,2.175,1.872Zm21.268,2.595a1.421,1.421,0,0,1,1.8,0,.992.992,0,0,1,0,1.548L42.866,21.933a1.421,1.421,0,0,1-1.8,0l-5.536-4.764a.99.99,0,0,1,0-1.548,1.421,1.421,0,0,1,1.8,0l3.937,3.388a1.1,1.1,0,0,0,1.4,0Zm0,0" transform="translate(0 0)"/><path class="a" d="M118.939,188.547H106.891a.86.86,0,1,0,0,1.7h12.048a.86.86,0,1,0,0-1.7Zm0,0" transform="translate(-91.53 -167.188)"/><path class="a" d="M48.661,111.012H42.008a.861.861,0,1,0,0,1.7h6.653a.861.861,0,1,0,0-1.7Zm0,0" transform="translate(-35.187 -98.436)"/><path class="a" d="M106.89,225.1h12.048a.86.86,0,1,0,0-1.7H106.89a.86.86,0,1,0,0,1.7Zm0,0" transform="translate(-91.529 -198.088)"/><path class="a" d="M123.1,279.648H106.89a.86.86,0,1,0,0,1.7H123.1a.861.861,0,1,0,0-1.7Zm0,0" transform="translate(-91.529 -247.969)"/><path class="a" d="M106.89,316.2H115a.86.86,0,1,0,0-1.7h-8.1a.86.86,0,1,0,0,1.7Zm0,0" transform="translate(-91.529 -278.87)"/><path class="a" d="M106.89,372.549h12.048a.861.861,0,1,0,0-1.7H106.89a.86.86,0,1,0,0,1.7Zm0,0" transform="translate(-91.529 -328.837)"/><path class="a" d="M106.89,407.4H123.1a.86.86,0,1,0,0-1.7H106.89a.86.86,0,1,0,0,1.7Zm0,0" transform="translate(-91.529 -359.738)"/><path class="a" d="M38.127,182.035a3.476,3.476,0,1,0,0,6.874,3.476,3.476,0,1,0,0-6.874Zm0,5.172a1.755,1.755,0,1,1,2.016-1.735A1.894,1.894,0,0,1,38.127,187.207Zm0,0" transform="translate(-29.207 -161.414)"/><path class="a" d="M38.127,274.242a3.476,3.476,0,1,0,0,6.874,3.476,3.476,0,1,0,0-6.874Zm0,5.172a1.755,1.755,0,1,1,2.016-1.735A1.894,1.894,0,0,1,38.127,279.414Zm0,0" transform="translate(-29.207 -243.175)"/><path class="a" d="M38.127,365.441a3.476,3.476,0,1,0,0,6.874,3.476,3.476,0,1,0,0-6.874Zm0,5.172a1.755,1.755,0,1,1,2.016-1.735A1.894,1.894,0,0,1,38.127,370.613Zm0,0" transform="translate(-29.207 -324.043)"/></g></svg>