<svg xmlns="http://www.w3.org/2000/svg" width="59.862" height="60" viewBox="0 0 59.862 60"><defs><style>.a{fill:#a346b1;}</style></defs><g transform="translate(-0.572)"><g transform="translate(0.573 9.677)"><g transform="translate(0)"><path class="a" d="M49.2,122.581l-2.24-6.722a6.774,6.774,0,0,0-5.215-4.522l-6.467-1.177v-.5a9.739,9.739,0,0,0,2.885-2.562h1.954a2.907,2.907,0,0,0,2.9-2.9V92.581a12.581,12.581,0,0,0-25.161,0v6.774a3.877,3.877,0,0,0,3.086,3.791,9.7,9.7,0,0,0,4.656,6.513v.5l-6.468,1.177a6.773,6.773,0,0,0-5.214,4.522l-.387,1.162-3.3-3.3a.97.97,0,0,1,0-1.369l3.823-3.822-7.175-7.175-4.32,4.32a6.774,6.774,0,0,0,0,9.58l13.079,13.079a6.771,6.771,0,0,0,9.55.029l4.714-4.319-1.47-1.467Zm-8.116-18.387a.969.969,0,0,1-.968.968H39.3a9.612,9.612,0,0,0,.631-2.016,3.833,3.833,0,0,0,1.151-.458Zm-.968-3.172V97.688a1.919,1.919,0,0,1,0,3.333Zm-19.355,0a1.919,1.919,0,0,1,0-3.333Zm0-6.505v1.105a3.839,3.839,0,0,0-.968.4V92.581a10.645,10.645,0,0,1,21.29,0v3.441a3.8,3.8,0,0,0-.968-.4V94.516H39.15a10.647,10.647,0,0,1-7.576-3.138l-1.133-1.133-1.133,1.133a10.647,10.647,0,0,1-7.576,3.138ZM22.7,101.29V96.415a12.547,12.547,0,0,0,7.742-3.439,12.541,12.541,0,0,0,7.742,3.439v4.875a7.684,7.684,0,0,1-1.047,3.871H30.441V107.1h5.1A7.73,7.73,0,0,1,22.7,101.29Zm10.645,9.231v.045l-2.9,2.9-2.9-2.9v-.045a9.669,9.669,0,0,0,5.806,0Zm-17.59,5.949a4.84,4.84,0,0,1,3.725-3.231l6.765-1.229,4.2,4.2,4.2-4.2L41.4,113.24a4.839,4.839,0,0,1,3.725,3.231l1.393,4.174H26.5l-3.769-3.769-4.188,3.789a.988.988,0,0,1-1.368,0l-2.114-2.114ZM6.883,104.1l4.438,4.438-1.051,1.051-4.438-4.438Zm16.969,22.876a4.84,4.84,0,0,1-6.843,0L3.93,113.891a4.84,4.84,0,0,1,0-6.843l.532-.532L8.9,110.954l-.035.035a2.908,2.908,0,0,0,0,4.106l6.94,6.94a2.888,2.888,0,0,0,2.054.851,2.849,2.849,0,0,0,2.018-.817l.073-.065,4.458,4.458Zm1.984-1.819L21.387,120.7l1.278-1.155,4.441,4.441Z" transform="translate(-0.58 -80)"/></g></g><g transform="translate(41.079)"><path class="a" d="M351.88,0H338.331a2.907,2.907,0,0,0-2.9,2.9v7.742a2.907,2.907,0,0,0,2.9,2.9h2.585l-1,5.836,9.339-5.836h2.625a2.907,2.907,0,0,0,2.9-2.9V2.9A2.907,2.907,0,0,0,351.88,0Zm.968,10.645a.969.969,0,0,1-.968.968H348.7l-6.146,3.841.659-3.841h-4.88a.969.969,0,0,1-.968-.968V2.9a.969.969,0,0,1,.968-.968H351.88a.969.969,0,0,1,.968.968Z" transform="translate(-335.428)"/></g><g transform="translate(44.95 3.871)"><rect class="a" width="11.613" height="1.935"/></g><g transform="translate(44.95 7.742)"><rect class="a" width="7.742" height="1.935"/></g><g transform="translate(54.627 7.742)"><rect class="a" width="1.935" height="1.935"/></g><g transform="translate(0.572 2.903)"><g transform="translate(0)"><path class="a" d="M30.434,24A27.079,27.079,0,0,0,4.066,44.947L2.232,41.89l-1.66,1,3.4,5.668,5.668-3.4-1-1.66L6.023,45.066A25.168,25.168,0,0,1,37.889,27.058l.573-1.848A27.079,27.079,0,0,0,30.434,24Z" transform="translate(-0.572 -24)"/></g></g><g transform="translate(49.983 18.026)"><path class="a" d="M419.016,152.418l-5.668-3.4-3.4,5.669,1.66,1,1.694-2.823a25.183,25.183,0,0,1-4.265,23.974l1.5,1.219a27.1,27.1,0,0,0,4.637-25.68l2.844,1.706Z" transform="translate(-409.036 -149.016)"/></g></g></svg>