<svg xmlns="http://www.w3.org/2000/svg" width="54.021" height="60" viewBox="0 0 54.021 60"><defs><style>.a{fill:#fe753f;}</style></defs><g transform="translate(0 -5.046)"><g transform="translate(0 5.046)"><path class="a" d="M98.4,285.459c0-6.394-4.591-11.6-10.235-11.6s-10.235,5.2-10.235,11.6,4.591,11.6,10.235,11.6S98.4,291.853,98.4,285.459Zm-18.359,0c0-5.076,3.645-9.205,8.125-9.205s8.125,4.129,8.125,9.205-3.645,9.205-8.125,9.205S80.039,290.535,80.039,285.459Z" transform="translate(-69.707 -241.728)"/><path class="a" d="M251.172,125.3l2.123,4.166a1,1,0,0,0,1.314.508l1.809-.842a7.713,7.713,0,0,0,1.03.674l.261,2.2a1.109,1.109,0,0,0,1.046,1.036H263a1.109,1.109,0,0,0,1.046-1.036l.261-2.2a7.718,7.718,0,0,0,1.03-.674l1.809.842a1,1,0,0,0,1.314-.508l2.123-4.166a1.3,1.3,0,0,0-.269-1.544l-1.547-1.354a10.226,10.226,0,0,0,0-1.348l1.547-1.354a1.3,1.3,0,0,0,.269-1.544l-2.123-4.166a1,1,0,0,0-1.314-.508l-1.809.842a7.7,7.7,0,0,0-1.03-.674l-.261-2.2A1.109,1.109,0,0,0,263,110.422h-4.245a1.109,1.109,0,0,0-1.046,1.036l-.261,2.2a7.725,7.725,0,0,0-1.03.674l-1.809-.842a1,1,0,0,0-1.314.508l-2.123,4.165a1.3,1.3,0,0,0,.269,1.544l1.547,1.354a10.183,10.183,0,0,0,0,1.348l-1.547,1.354A1.3,1.3,0,0,0,251.172,125.3Zm3.974-2.548a7.506,7.506,0,0,1,0-2.048,1.277,1.277,0,0,0-.4-1.131l-1.288-1.127,1.2-2.355,1.507.7a.957.957,0,0,0,1.064-.176,5.664,5.664,0,0,1,1.561-1.022,1.179,1.179,0,0,0,.666-.956l.218-1.828h2.4l.218,1.828a1.179,1.179,0,0,0,.666.956,5.664,5.664,0,0,1,1.561,1.022.957.957,0,0,0,1.064.177l1.507-.7,1.2,2.356-1.288,1.127a1.277,1.277,0,0,0-.4,1.131,7.515,7.515,0,0,1,0,2.048,1.277,1.277,0,0,0,.4,1.131l1.288,1.127-1.2,2.355-1.507-.7a.957.957,0,0,0-1.064.177,5.661,5.661,0,0,1-1.561,1.022,1.179,1.179,0,0,0-.666.956l-.218,1.828h-2.4l-.218-1.828a1.179,1.179,0,0,0-.666-.956,5.659,5.659,0,0,1-1.561-1.022.957.957,0,0,0-1.064-.177l-1.507.7-1.2-2.355,1.288-1.127A1.278,1.278,0,0,0,255.146,122.755Z" transform="translate(-224.544 -97.825)"/><path class="a" d="M311.7,177.246a4.4,4.4,0,1,0-3.852-4.365A4.137,4.137,0,0,0,311.7,177.246Zm0-6.338a1.989,1.989,0,1,1-1.742,1.974A1.871,1.871,0,0,1,311.7,170.908Z" transform="translate(-275.369 -148.975)"/><path class="a" d="M113.65,137.613a1.225,1.225,0,0,0,.72,1.481,1.053,1.053,0,0,0,1.307-.815,14.41,14.41,0,0,1,7.472-9.541l-.526,1.355a1.262,1.262,0,0,0,.541,1.576.947.947,0,0,0,.424.1,1.058,1.058,0,0,0,.966-.714l1.475-3.8a1.3,1.3,0,0,0-.417-1.5l-3.068-2.116a.987.987,0,0,0-1.45.4,1.29,1.29,0,0,0,.353,1.643l1.093.754A16.682,16.682,0,0,0,113.65,137.613Z" transform="translate(-101.621 -109.31)"/><path class="a" d="M305.031,317.682a1.225,1.225,0,0,0-.72-1.481,1.043,1.043,0,0,0-1.307.815,14.409,14.409,0,0,1-7.472,9.541l.526-1.355a1.262,1.262,0,0,0-.541-1.576,1.011,1.011,0,0,0-1.391.613l-1.475,3.8a1.3,1.3,0,0,0,.417,1.5l3.068,2.116a.959.959,0,0,0,.548.174,1.034,1.034,0,0,0,.9-.574,1.29,1.29,0,0,0-.353-1.643l-1.093-.754A16.681,16.681,0,0,0,305.031,317.682Z" transform="translate(-261.697 -278.962)"/><path class="a" d="M54.016,9.6s0-.009,0-.014a4.53,4.53,0,0,0-4.273-4.543H4.228A4.58,4.58,0,0,0,0,9.836V60.265a4.563,4.563,0,0,0,4.289,4.779h.022a1.2,1.2,0,0,0,0-2.391H4.289A2.325,2.325,0,0,1,2.11,60.264v-44.8h49.8V60.256a2.289,2.289,0,0,1-2.114,2.4c-12.174.008-35.291.018-36.166,0a.933.933,0,0,0-.1,0,1.2,1.2,0,0,0,.142,2.392l36.123,0c2.3,0,4.226-2.18,4.223-4.79V9.825c0-.075,0-.149-.005-.222Zm-2.1,3.47H2.11V9.836a2.3,2.3,0,0,1,2.118-2.4H49.734a2.327,2.327,0,0,1,2.177,2.4v3.237Z" transform="translate(0 -5.046)"/><path class="a" d="M46.057,37.245a1.106,1.106,0,0,0-.939.873c-.263,1.074.856,1.935,1.644,1.278a1.3,1.3,0,0,0,.346-1.416A1.058,1.058,0,0,0,46.057,37.245Z" transform="translate(-40.323 -33.393)"/><path class="a" d="M81.8,37.348a1.267,1.267,0,0,0-.571,1.56,1.023,1.023,0,0,0,1.377.647,1.267,1.267,0,0,0,.571-1.561A1.024,1.024,0,0,0,81.8,37.348Z" transform="translate(-72.592 -33.408)"/><path class="a" d="M117.857,37.348a1.267,1.267,0,0,0-.571,1.56,1.023,1.023,0,0,0,1.377.647,1.268,1.268,0,0,0,.571-1.561A1.024,1.024,0,0,0,117.857,37.348Z" transform="translate(-104.841 -33.408)"/><path class="a" d="M75.968,487.165a.972.972,0,0,0-1.313.128,1.32,1.32,0,0,0-.255,1.3,1.019,1.019,0,0,0,1.957.024A1.3,1.3,0,0,0,75.968,487.165Z" transform="translate(-66.486 -429.357)"/><path class="a" d="M150.571,328.6v-.555a3.353,3.353,0,0,0,2.189-2.749,3.112,3.112,0,0,0-1.833-3.457c-.117-.047-.237-.1-.356-.146v-2.534a1.36,1.36,0,0,1,.334.223l-.009-.009s.681.538,1.126-.1a.928.928,0,0,0-.053-1.214,2.916,2.916,0,0,0-1.4-.766v-.416a.8.8,0,1,0-1.583,0v.477l-.1.032a3.011,3.011,0,0,0-.994,4.783,5.354,5.354,0,0,0,1.095.73v3.431a2.146,2.146,0,0,1-.9-.458.737.737,0,0,0-1.1.26.971.971,0,0,0,.229,1.241,3.406,3.406,0,0,0,1.77.762v.469a.8.8,0,1,0,1.583,0Zm.628-3.6a1.716,1.716,0,0,1-.628,1.107v-2.494A1.3,1.3,0,0,1,151.2,325Zm-2.329-4.244a.886.886,0,0,1-.171-.783,1.284,1.284,0,0,1,.29-.632v1.512C148.947,320.821,148.907,320.789,148.87,320.756Z" transform="translate(-131.365 -278.808)"/></g></g></svg>