<svg xmlns="http://www.w3.org/2000/svg" width="28.802" height="28.858" viewBox="0 0 28.802 28.858"><defs><style>.a{fill:#efeeec;}</style></defs><g transform="translate(0 0)"><path class="a" d="M187.764,1.691h-4.227A2.539,2.539,0,0,0,181,4.227v6.03h1.836a2.536,2.536,0,1,0,4.782,0h5.363a2.536,2.536,0,1,0,4.782,0H199.6V0H187.764Zm-4.227,1.691h.845v1.8h-1.691V4.227A.847.847,0,0,1,183.536,3.382Zm2.536,7.722a.845.845,0,1,1-.845-.846A.846.846,0,0,1,186.073,11.1Zm-3.382-2.536V6.876h3.382V3.382h1.691V8.567ZM196.218,11.1a.845.845,0,1,1-.845-.845A.847.847,0,0,1,196.218,11.1Zm-6.764-9.413h8.454V8.567h-8.454Zm0,0" transform="translate(-170.798)"/><path class="a" d="M13.584,158.764v6.764h-.845a2.539,2.539,0,0,1-2.536-2.536,4.232,4.232,0,0,0-4.227-4.227h-1.8a2.537,2.537,0,0,1,0-5.073H7.665V152H4.171a4.228,4.228,0,0,0,0,8.455h1.8a2.539,2.539,0,0,1,2.536,2.536,4.232,4.232,0,0,0,4.227,4.227h.845v5.073H28.8V158.764Zm6.764,1.691v.845a.845.845,0,1,1-1.691,0v-.845Zm-5.073,0h1.691v.845a.845.845,0,1,1-1.691,0Zm0,3.236a2.531,2.531,0,0,0,2.536-.5,2.53,2.53,0,0,0,3.382,0,2.53,2.53,0,0,0,3.382,0,2.531,2.531,0,0,0,2.536.5v1.836H23.729V170.6H22.038v-5.073H15.274Zm0,3.527h5.073V170.6H15.274ZM25.42,170.6v-3.382h1.691V170.6Zm1.691-9.3a.845.845,0,1,1-1.691,0v-.845h1.691Zm-3.382-.845v.845a.845.845,0,1,1-1.691,0v-.845Zm0,0" transform="translate(0 -143.433)"/></g></svg>