<svg xmlns="http://www.w3.org/2000/svg" width="32.184" height="32.178" viewBox="0 0 32.184 32.178"><defs><style>.a{fill:#efeeec;}</style></defs><g transform="translate(-1.988 -2)"><path class="a" d="M31.082,19.215A.536.536,0,0,0,30.653,19H23.145a.536.536,0,0,0-.429.215L21.107,21.36a.536.536,0,0,0-.107.322V30.8a1.073,1.073,0,0,0,1.073,1.073h9.653A1.073,1.073,0,0,0,32.8,30.8V21.681a.536.536,0,0,0-.107-.322Zm-7.669.858h6.972l.8,1.073H22.609Zm1.341,3.218H22.073V22.218h2.681Zm1.073-1.073h2.145V24.97l-.775-.517a.536.536,0,0,0-.6,0l-.775.517Zm3.218,0h2.681V23.29H29.044ZM22.073,30.8V24.363h2.681v1.609a.536.536,0,0,0,.834.446l1.311-.875,1.311.874a.536.536,0,0,0,.834-.445V24.363h2.681V30.8Z" transform="translate(-8.816 -7.883)"/><path class="a" d="M32.563,16.48a1.609,1.609,0,0,0-1.51,1.073H28.245a10.12,10.12,0,0,0-2.118-5.695V8.435h3.316a1.609,1.609,0,1,0,0-1.073H25.591a.536.536,0,0,0-.536.536v2.779a10.169,10.169,0,0,0-4.29-2.409V5.218h3.316a1.609,1.609,0,1,0,0-1.073H20.228a.536.536,0,0,0-.536.536V8.039a9.317,9.317,0,0,0-3.218,0V3.609a.536.536,0,0,0-.536-.536H12.085a1.609,1.609,0,1,0,0,1.073H15.4V8.269a10.169,10.169,0,0,0-4.29,2.409V7.9a.536.536,0,0,0-.536-.536H6.722a1.609,1.609,0,1,0,0,1.073h3.316v3.422a10.12,10.12,0,0,0-2.118,5.695H5.113a1.609,1.609,0,1,0,0,1.073H7.921a10.12,10.12,0,0,0,2.118,5.695v3.422H6.722a1.609,1.609,0,1,0,0,1.073h3.853a.536.536,0,0,0,.536-.536V25.5a10.169,10.169,0,0,0,4.29,2.409v4.124H12.085a1.609,1.609,0,1,0,0,1.073h3.853a.536.536,0,0,0,.536-.536v-4.43a9.317,9.317,0,0,0,3.218,0V31.5a.536.536,0,0,0,.536.536h3.853a1.609,1.609,0,1,0,0-1.073H20.764V27.908a10.169,10.169,0,0,0,4.29-2.409v2.779a.536.536,0,0,0,.536.536h3.853a1.609,1.609,0,1,0,0-1.073H26.127V24.32a10.12,10.12,0,0,0,2.118-5.695h2.807a1.606,1.606,0,1,0,1.51-2.145ZM30.954,7.363a.536.536,0,1,1-.536.536A.536.536,0,0,1,30.954,7.363ZM25.591,4.145a.536.536,0,1,1-.536.536A.536.536,0,0,1,25.591,4.145Zm-15.016,0a.536.536,0,1,1,.536-.536A.536.536,0,0,1,10.575,4.145ZM5.212,8.435A.536.536,0,1,1,5.748,7.9.536.536,0,0,1,5.212,8.435Zm0,20.379a.536.536,0,1,1,.536-.536A.536.536,0,0,1,5.212,28.814Zm5.363,4.29a.536.536,0,1,1,.536-.536A.536.536,0,0,1,10.575,33.1ZM25.591,30.96a.536.536,0,1,1-.536.536A.536.536,0,0,1,25.591,30.96Zm5.363-3.218a.536.536,0,1,1-.536.536A.536.536,0,0,1,30.954,27.742ZM3.6,18.625a.536.536,0,1,1,.536-.536A.536.536,0,0,1,3.6,18.625Zm14.48,8.581A9.117,9.117,0,1,1,27.2,18.089,9.117,9.117,0,0,1,18.083,27.206Zm14.48-8.581a.536.536,0,1,1,.536-.536A.536.536,0,0,1,32.563,18.625Z" transform="translate(0 0)"/></g></svg>