<svg xmlns="http://www.w3.org/2000/svg" width="29.261" height="32" viewBox="0 0 29.261 32"><defs><style>.a{fill:#efeeec;}</style></defs><path class="a" d="M51.17,19.291l-2.36-.667V12.646H46.149l-.04-.023a9.847,9.847,0,0,0,0-3.912l1.214-.7L44.232,2.657l-1.216.7A9.744,9.744,0,0,0,39.63,1.4V0H33.449V1.4a9.745,9.745,0,0,0-3.386,1.957l-1.216-.7L25.757,8.01l1.214.7a9.818,9.818,0,0,0-.2,1.956c0,.042,0,.083,0,.125H21.909V28.97h2.84a3.664,3.664,0,0,0,7.217,0h9.146a3.664,3.664,0,0,0,7.217,0h2.84Zm-4.659,9.045a1.79,1.79,0,1,1-1.79-1.79A1.792,1.792,0,0,1,46.511,28.335Zm-16.364,0a1.79,1.79,0,1,1-1.79-1.79A1.792,1.792,0,0,1,30.148,28.335Zm-1.79-3.665a3.671,3.671,0,0,0-3.448,2.424H23.784V20.271H33.61l-1.066,1.066,1.326,1.326,3.329-3.33L33.869,16,32.543,17.33,33.61,18.4H23.784V12.667H40.935V27.095H31.806a3.671,3.671,0,0,0-3.448-2.424Zm.292-14a7.907,7.907,0,0,1,.3-2.161l.2-.7-.83-.479,1.216-2.105.833.481.509-.525a7.874,7.874,0,0,1,3.739-2.161l.71-.178V1.875h2.431v.961l.71.178A7.874,7.874,0,0,1,42.2,5.175l.509.525.833-.481,1.216,2.105-.83.479.2.7a7.938,7.938,0,0,1,.048,4.14H42.81V10.792h-2c0-.042,0-.083,0-.125a4.271,4.271,0,1,0-8.542,0c0,.042,0,.083,0,.125h-3.62c0-.042,0-.083,0-.125Zm5.494,0a2.4,2.4,0,1,1,4.792,0q0,.063,0,.125H34.147Q34.144,10.73,34.144,10.667ZM49.3,27.095H48.17A3.662,3.662,0,0,0,42.81,25.21V14.521h4.125v5.522l2.36.667Z" transform="translate(-21.909)"/></svg>