<svg xmlns="http://www.w3.org/2000/svg" width="35.731" height="30.024" viewBox="0 0 35.731 30.024"><defs><style>.a{fill:none;stroke:#437295;stroke-linecap:round;stroke-linejoin:round;stroke-width:2px;}</style></defs><g transform="translate(0.232 -1.997)"><path class="a" d="M19.965,17.983,13.983,12,8,17.983" transform="translate(3.723 5.082)"/><line class="a" y2="13.772" transform="translate(17.197 17.25)"/><path class="a" d="M30.446,27a7.877,7.877,0,0,0,3.724-8.769,7.632,7.632,0,0,0-7.353-5.873H24.9A12.255,12.255,0,0,0,14.521,3.083,12.074,12.074,0,0,0,2.37,9.713,12.739,12.739,0,0,0,4.04,23.738" transform="translate(0 0)"/><path class="a" d="M19.965,17.983,13.983,12,8,17.983" transform="translate(3.723 5.082)"/></g></svg>